<svg width="12" height="12" viewBox="0 0 12 12" fill="none" xmlns="http://www.w3.org/2000/svg">
<path fill-rule="evenodd" clip-rule="evenodd" d="M6 12C9.31371 12 12 9.31371 12 6C12 2.68629 9.31371 0 6 0C2.68629 0 0 2.68629 0 6C0 9.31371 2.68629 12 6 12ZM9.02022 4.35355C9.21548 4.15829 9.21548 3.84171 9.02022 3.64645C8.82496 3.45118 8.50838 3.45118 8.31311 3.64645L5.33333 6.62623L3.68689 4.97978C3.49162 4.78452 3.17504 4.78452 2.97978 4.97978C2.78452 5.17504 2.78452 5.49162 2.97978 5.68689L4.97978 7.68689L5.33333 8.04044L5.68689 7.68689L9.02022 4.35355Z" fill="#17B26A"/>
</svg>
