<svg width="100" height="91" viewBox="0 0 100 91" fill="none" xmlns="http://www.w3.org/2000/svg">
<g filter="url(#filter0_d_569_24091)">
<path d="M50 0.375C41.9652 0.375 34.1107 2.75762 27.43 7.22155C20.7492 11.6855 15.5422 18.0302 12.4674 25.4535C9.3926 32.8767 8.58809 41.0451 10.1556 48.9255C11.7231 56.806 15.5923 64.0447 21.2738 69.7262C26.9553 75.4077 34.194 79.2769 42.0745 80.8444C49.955 82.4119 58.1233 81.6074 65.5465 78.5326C72.9698 75.4578 79.3145 70.2508 83.7785 63.57C88.2424 56.8893 90.625 49.0349 90.625 41C90.6126 30.2294 86.3285 19.9035 78.7125 12.2875C71.0965 4.67157 60.7706 0.387448 50 0.375ZM69.3482 33.8864L46.4295 55.7614C45.8467 56.3158 45.0732 56.625 44.2688 56.625C43.4645 56.625 42.6909 56.3158 42.1082 55.7614L30.6519 44.8239C30.0534 44.2505 29.7069 43.4631 29.6885 42.6345C29.6702 41.8059 29.9815 41.0039 30.554 40.4046C31.1266 39.8054 31.9136 39.4579 32.7422 39.4385C33.5708 39.4191 34.3732 39.7293 34.9732 40.3012L44.2688 49.1787L65.0269 29.3636C65.6269 28.7918 66.4293 28.4816 67.2579 28.501C68.0864 28.5204 68.8734 28.8678 69.446 29.4671C70.0186 30.0664 70.3299 30.8684 70.3115 31.697C70.2932 32.5256 69.9467 33.313 69.3482 33.8864Z" fill="#17B26A"/>
</g>
<defs>
<filter id="filter0_d_569_24091" x="-2.625" y="0.375" width="105.25" height="105.25" filterUnits="userSpaceOnUse" color-interpolation-filters="sRGB">
<feFlood flood-opacity="0" result="BackgroundImageFix"/>
<feColorMatrix in="SourceAlpha" type="matrix" values="0 0 0 0 0 0 0 0 0 0 0 0 0 0 0 0 0 0 127 0" result="hardAlpha"/>
<feOffset dy="12"/>
<feGaussianBlur stdDeviation="6"/>
<feComposite in2="hardAlpha" operator="out"/>
<feColorMatrix type="matrix" values="0 0 0 0 0.0901961 0 0 0 0 0.698039 0 0 0 0 0.415686 0 0 0 0.1 0"/>
<feBlend mode="normal" in2="BackgroundImageFix" result="effect1_dropShadow_569_24091"/>
<feBlend mode="normal" in="SourceGraphic" in2="effect1_dropShadow_569_24091" result="shape"/>
</filter>
</defs>
</svg>
